<?xml version="1.0" standalone="no"?>
<!DOCTYPE svg PUBLIC "-//W3C//DTD SVG 20010904//EN"
 "http://www.w3.org/TR/2001/REC-SVG-20010904/DTD/svg10.dtd">
<svg version="1.0" xmlns="http://www.w3.org/2000/svg"
 width="300.000000pt" height="300.000000pt" viewBox="0 0 300.000000 300.000000"
 preserveAspectRatio="xMidYMid meet">
<metadata>
Created by potrace 1.14, written by Peter Selinger 2001-2017
</metadata>
<g transform="translate(0.000000,300.000000) scale(0.100000,-0.100000)"
fill="#000000" stroke="none">
<path d="M1521 2980 c-13 -11 -20 -20 -16 -20 3 0 0 -6 -8 -14 -7 -8 -13 -30
-12 -50 1 -21 -3 -36 -9 -36 -7 0 -6 -3 2 -8 13 -9 12 -38 -2 -61 -6 -9 -5
-12 1 -8 7 4 10 -10 9 -38 0 -25 -5 -45 -11 -45 -7 0 -7 -3 0 -8 14 -10 17
-65 3 -56 -7 5 -8 3 -2 -7 12 -20 14 -80 2 -73 -6 4 -2 -6 8 -22 13 -19 14
-25 5 -19 -11 6 -13 4 -8 -8 3 -9 2 -19 -4 -23 -7 -4 -6 -10 1 -19 12 -14 10
-52 -4 -74 -6 -9 -5 -12 1 -8 7 4 10 -10 9 -38 0 -25 -5 -45 -10 -45 -6 0 -1
-7 10 -16 10 -8 13 -12 5 -8 -11 5 -13 3 -8 -9 3 -9 2 -19 -4 -22 -5 -4 -6
-12 -2 -18 12 -19 12 -78 0 -70 -6 4 -7 1 -1 -8 13 -21 14 -80 0 -72 -6 4 -5
0 2 -9 14 -17 13 -53 -2 -77 -6 -9 -5 -12 1 -8 7 4 10 -10 9 -38 0 -25 -5 -45
-11 -45 -5 0 -4 -4 3 -8 13 -9 12 -38 -2 -61 -6 -9 -5 -12 1 -8 7 4 10 -10 9
-38 0 -25 -5 -45 -11 -45 -5 0 -4 -4 3 -8 13 -9 12 -38 -2 -61 -6 -9 -5 -12 1
-8 7 4 10 -10 9 -38 0 -25 -5 -45 -11 -45 -5 0 -4 -4 3 -8 13 -9 12 -38 -2
-61 -6 -9 -5 -12 1 -8 7 4 10 -10 9 -38 0 -25 -5 -45 -11 -45 -7 0 -7 -3 0 -8
14 -10 17 -65 3 -56 -7 5 -8 3 -2 -7 12 -20 14 -80 2 -73 -6 4 -2 -6 8 -22 13
-19 14 -25 5 -19 -11 6 -13 4 -8 -8 3 -9 2 -19 -4 -23 -7 -4 -6 -10 1 -19 6
-7 10 -17 9 -21 -6 -35 35 -79 71 -78 41 2 75 24 69 47 0 1 4 14 10 30 6 15 7
27 3 27 -10 0 -8 62 3 80 5 8 5 15 -1 17 -11 4 -10 66 1 84 6 8 4 10 -4 4 -10
-6 -11 -3 -2 14 7 11 8 21 3 21 -9 0 -7 61 3 87 2 7 0 15 -5 18 -6 3 -6 15 0
30 5 14 6 25 1 25 -8 0 -5 62 4 87 2 7 0 15 -4 18 -5 3 -5 21 -1 40 4 19 4 37
0 40 -4 3 -4 21 0 40 4 19 4 37 -1 40 -4 3 -4 17 1 30 5 14 6 25 1 25 -8 0 -5
62 4 87 2 7 1 14 -3 17 -9 6 -7 59 3 76 5 8 4 15 -1 17 -5 2 -8 19 -7 38 2 19
4 51 6 70 1 19 0 35 -3 35 -9 0 -5 64 5 80 5 8 5 15 -1 17 -5 2 -8 19 -7 38 2
19 4 51 6 70 1 19 0 35 -3 35 -9 0 -5 64 5 80 5 8 5 15 -1 17 -11 4 -10 66 1
84 6 8 4 10 -4 4 -10 -6 -11 -3 -2 14 7 11 8 21 3 21 -9 0 -7 61 3 87 2 7 0
15 -5 18 -6 3 -6 15 0 30 5 14 6 25 1 25 -4 0 -6 18 -4 41 2 22 -1 46 -6 53
-6 7 -8 16 -4 19 3 4 -1 7 -10 7 -9 0 -17 4 -17 9 0 5 -14 8 -30 6 -18 -3 -28
0 -25 5 9 14 3 12 -24 -10z"/>
<path d="M2350 2382 c-16 -6 -28 -15 -71 -54 -16 -15 -29 -25 -29 -23 0 4 -33
-23 -81 -67 -10 -10 -22 -18 -27 -18 -4 0 -13 -9 -20 -21 -7 -12 -16 -19 -18
-16 -3 3 -21 -10 -40 -29 -19 -19 -34 -32 -34 -29 0 3 -11 -4 -25 -17 -32 -30
-48 -44 -115 -98 -68 -55 -75 -60 -125 -105 -22 -19 -44 -35 -49 -35 -4 0 -6
-11 -4 -25 3 -13 1 -22 -3 -19 -5 3 -9 -2 -9 -10 0 -8 5 -18 10 -21 6 -4 8
-11 5 -16 -4 -5 -1 -9 4 -9 6 0 11 -7 11 -16 0 -8 4 -13 9 -10 5 4 20 -7 34
-23 14 -17 28 -27 31 -24 3 4 6 -1 6 -10 0 -9 5 -17 10 -17 6 0 33 -22 61 -50
27 -27 54 -50 59 -50 6 0 10 -6 10 -14 0 -14 27 -31 43 -27 5 1 7 -2 4 -6 -5
-10 60 -73 68 -65 3 3 5 -2 5 -11 0 -9 5 -17 10 -17 6 0 31 -21 55 -46 25 -25
45 -44 45 -41 0 3 32 -26 71 -64 39 -38 76 -69 81 -69 5 0 6 -4 3 -10 -3 -5 1
-10 10 -10 9 0 13 -5 10 -10 -3 -5 -1 -10 5 -10 6 0 29 -18 50 -40 22 -23 40
-38 40 -34 0 4 10 -1 22 -12 13 -12 18 -13 13 -4 -8 13 -7 13 8 1 13 -10 20
-11 30 -2 8 6 17 9 20 6 4 -3 5 -2 2 2 -3 3 4 12 14 19 14 10 18 23 15 51 -3
31 -13 47 -56 85 -28 27 -56 48 -60 48 -4 0 -8 7 -8 15 0 8 -7 15 -15 15 -8 0
-15 7 -15 16 0 8 -3 13 -8 10 -8 -4 -44 18 -43 28 0 3 -15 21 -34 41 -19 19
-35 33 -35 30 0 -3 -18 12 -39 34 -21 22 -42 37 -45 34 -3 -4 -6 1 -6 10 0 9
-4 17 -9 17 -12 0 -76 64 -73 73 1 5 -2 6 -7 3 -5 -3 -19 8 -32 24 -13 16 -30
30 -37 30 -7 0 -10 5 -7 10 3 6 1 10 -5 10 -6 0 -29 18 -51 40 -22 22 -44 40
-49 40 -6 0 -10 5 -10 11 0 7 -8 18 -17 25 -13 10 -15 16 -6 22 25 16 88 68
105 86 10 11 18 17 18 13 0 -3 11 4 24 16 14 12 38 34 55 50 16 15 33 27 38
27 4 0 21 14 37 30 16 17 36 30 43 30 8 0 12 4 9 8 -2 4 11 18 30 31 19 13 34
27 34 32 0 5 6 9 14 9 8 0 17 7 20 16 4 9 9 15 11 12 8 -7 101 82 98 93 -2 5
2 9 7 9 12 0 2 48 -14 70 -6 8 -18 17 -26 18 -34 8 -46 9 -60 4z"/>
<path d="M1164 1919 c-3 -6 -17 -9 -30 -6 -13 2 -24 0 -24 -5 0 -5 -10 -6 -21
-3 -12 4 -19 3 -16 -1 3 -5 -5 -10 -16 -10 -29 -2 -49 -8 -64 -17 -7 -5 -17
-5 -23 -2 -5 3 -10 3 -10 -2 0 -4 -14 -16 -31 -25 -17 -10 -27 -12 -22 -5 4 6
-6 0 -23 -15 -16 -14 -41 -37 -56 -51 -15 -13 -25 -27 -21 -30 3 -4 -1 -7 -11
-7 -9 0 -15 -4 -11 -9 3 -6 -1 -13 -9 -18 -8 -4 -15 -10 -15 -13 0 -15 -14
-39 -21 -35 -4 2 -5 -8 -2 -23 3 -15 1 -23 -4 -19 -5 5 -16 -13 -24 -40 -10
-32 -12 -50 -5 -55 6 -5 5 -8 -3 -8 -7 0 -10 -4 -7 -10 3 -5 2 -10 -2 -10 -5
0 -9 -18 -8 -40 1 -22 -2 -40 -5 -40 -6 0 -5 -44 1 -65 2 -5 0 -19 -4 -31 -7
-19 -15 -20 -112 -19 -67 0 -105 -3 -105 -10 0 -5 -4 -4 -8 3 -6 9 -14 6 -32
-10 -14 -13 -27 -22 -30 -21 -3 1 -6 -16 -7 -38 -2 -29 1 -39 12 -39 8 0 15
-7 15 -16 0 -8 4 -13 9 -10 5 4 11 2 13 -3 4 -11 130 -17 146 -7 7 4 12 1 12
-6 0 -10 2 -10 8 -1 4 7 13 9 21 4 7 -5 21 -7 30 -4 11 3 21 -5 29 -21 6 -14
8 -26 4 -26 -10 0 -8 -1002 2 -1019 6 -10 5 -12 -3 -7 -8 6 -8 1 1 -18 6 -14
18 -26 25 -26 8 0 11 -5 7 -12 -4 -6 -3 -8 4 -4 6 3 13 2 17 -4 10 -17 28 -11
61 18 22 19 31 35 30 55 -1 15 3 27 9 27 5 0 3 5 -5 10 -9 6 -11 10 -3 10 7 0
11 6 9 13 -13 39 -16 68 -7 63 11 -7 9 13 -2 32 -5 7 -3 12 3 12 7 0 8 6 0 19
-7 14 -6 21 3 24 9 3 9 7 -2 20 -11 14 -11 17 0 17 11 0 11 2 -1 10 -10 6 -11
10 -2 10 6 0 12 5 12 11 0 5 -6 7 -12 3 -10 -6 -10 -5 -1 7 10 12 10 18 1 27
-9 9 -9 12 3 12 12 0 12 2 -1 10 -10 6 -11 10 -2 10 6 0 12 5 12 11 0 5 -6 7
-12 3 -10 -6 -10 -5 -1 7 10 12 10 18 1 27 -9 9 -9 12 0 12 10 0 10 5 1 21 -6
12 -7 19 -2 16 5 -4 10 0 10 8 0 8 -4 12 -9 9 -4 -3 -8 0 -8 5 0 6 6 11 13 11
8 0 7 4 -3 10 -12 8 -12 10 -1 10 11 0 11 3 1 15 -8 10 -9 15 -2 15 6 0 10 6
8 13 -13 39 -16 68 -7 63 11 -7 9 13 -2 32 -5 7 -3 12 3 12 7 0 8 6 0 19 -7
14 -7 22 0 26 8 5 7 11 -1 21 -9 11 -9 14 0 14 9 0 9 5 0 21 -6 12 -7 19 -2
16 5 -4 10 0 10 8 0 8 -4 12 -9 9 -4 -3 -8 0 -8 5 0 6 6 11 13 11 8 0 7 4 -3
10 -12 8 -12 10 -1 10 11 0 11 3 1 15 -8 10 -9 15 -2 15 6 0 10 6 8 13 -13 39
-16 68 -7 63 11 -7 9 13 -2 32 -5 6 -4 12 1 12 13 0 10 33 -3 42 -6 5 -4 8 5
8 13 0 13 2 1 9 -12 8 -13 12 -1 26 11 14 32 16 131 13 64 -2 115 0 113 4 -2
4 4 9 15 13 11 3 25 13 33 22 11 14 11 16 -2 8 -12 -7 -13 -6 -3 6 13 16 14
59 1 59 -4 0 -8 7 -8 15 0 14 -12 19 -32 16 -5 0 -8 3 -8 7 0 4 -50 7 -111 7
-85 -1 -115 3 -126 14 -11 10 -11 16 -3 21 15 10 15 21 -2 31 -7 5 -8 9 -3 9
6 0 11 15 12 33 2 56 7 87 16 87 4 0 6 4 2 9 -8 14 39 112 72 148 29 33 93 72
127 79 11 2 22 7 25 11 3 5 27 8 53 8 27 0 48 3 48 6 0 9 34 7 47 -3 7 -5 14
-5 18 2 3 5 14 10 23 10 22 0 57 46 57 74 0 12 -7 28 -15 36 -14 13 -14 14 0
6 13 -9 13 -8 -1 8 -9 9 -25 18 -37 19 -12 1 -22 6 -22 12 0 6 -3 7 -8 0 -11
-15 -32 -17 -32 -3 0 9 -3 9 -12 0 -15 -15 -32 -16 -23 -2 3 6 4 10 1 10 -3 0
-8 -5 -12 -11z"/>
</g>
</svg>
