<?xml version="1.0" encoding="utf-8"?>
<!-- Generator: Adobe Illustrator 25.2.3, SVG Export Plug-In . SVG Version: 6.00 Build 0)  -->
<svg version="1.1" id="Capa_1" xmlns="http://www.w3.org/2000/svg" xmlns:xlink="http://www.w3.org/1999/xlink" x="0px" y="0px"
	 viewBox="0 0 400 400" style="enable-background:new 0 0 400 400;" xml:space="preserve">
<style type="text/css">
	.st0{fill:#FFFFFF;stroke:#A6A6A6;stroke-miterlimit:10;}
	.st1{fill:#D66D5D;}
	.st2{opacity:0.28;fill:#534551;enable-background:new    ;}
</style>
<path class="st0" d="M335.4,188.6c0.8-3.6,1.2-7.3,1.2-11.1c0-28.4-22.8-51.4-50.8-51.4c-9.2,0-17.8,2.5-25.2,6.8
	c-9.3-10.4-22.8-17-37.7-17c-9.4,0-18.2,2.6-25.8,7.1c-8.8-7.5-20.3-12.1-32.7-12.1c-10.7,0-20.7,3.4-28.9,9.1
	c-7.1-3.9-15.3-6.1-24-6.1c-28.1,0-50.8,23-50.8,51.4c0,9.4,2.5,18.3,6.9,25.9c-10,9.4-16.2,22.8-16.2,37.7
	c0,28.4,22.8,51.4,50.8,51.4c11.4,0,21.8-3.8,30.3-10.1c8.7,15.8,25.3,26.5,44.4,26.5c15.8,0,29.9-7.3,39.3-18.8
	c9.1,8.7,21.4,14,34.9,14c13.8,0,26.3-5.6,35.5-14.7c5.4,2,11.2,3.1,17.3,3.1c28.1,0,50.8-23,50.8-51.4
	C354.7,212.6,347.2,198,335.4,188.6z"/>
<g>
	<path class="st1" d="M99.9,240.3c-2.3,0-4.2-1.9-4.2-4.3v-71.4c0-2.4,1.9-4.3,4.2-4.3h11.6c13.7,0,19.8,7.6,19.8,22.9
		c0,11-5,17.1-5,17.1c3,3.8,5,9.8,5,17.1c0,15.3-6.1,22.9-19.8,22.9L99.9,240.3L99.9,240.3z M107.4,172.1v22.3h4.1
		c5.7,0,8.1-3.2,8.1-11.1c0-7.9-2.3-11.1-8.1-11.1H107.4z M107.4,206.1v22.4h4.1c5.7,0,8.1-3.2,8.1-11.1c0-8.1-2.3-11.3-8.1-11.3
		L107.4,206.1L107.4,206.1z"/>
	<path class="st1" d="M143.1,183.5c0-14.9,6.4-23.1,19.2-23.1c12.9,0,19.2,8.1,19.2,23.1v33.5c0,9.4-2.5,14.8-6.1,18.5
		c-3.9,3.8-8.8,4.7-13.1,4.7c-4.2,0-9.1-0.9-13-4.7c-3.6-3.7-6.2-9.1-6.2-18.5V183.5L143.1,183.5z M154.9,217.1
		c0,7.8,2.5,11.5,7.5,11.5c4.9,0,7.5-3.4,7.5-11.5v-33.5c0-7.9-2.5-11.4-7.5-11.4c-5.2,0-7.5,3.7-7.5,11.4V217.1z"/>
	<path class="st1" d="M193.6,183.5c0-14.9,6.4-23.1,19.2-23.1c12.9,0,19.2,8.1,19.2,23.1v33.5c0,9.4-2.5,14.8-6.1,18.5
		c-3.9,3.8-8.8,4.7-13.1,4.7c-4.2,0-9.1-0.9-13-4.7c-3.6-3.7-6.2-9.1-6.2-18.5V183.5L193.6,183.5z M205.3,217.1
		c0,7.8,2.5,11.5,7.5,11.5c4.9,0,7.5-3.4,7.5-11.5v-33.5c0-7.9-2.5-11.4-7.5-11.4c-5.2,0-7.5,3.7-7.5,11.4V217.1z"/>
	<path class="st1" d="M263.5,240.3c-1.8,0-3.6-1.5-4-3.3l-4-26.7V236c0,2.4-2,4.3-4.2,4.3h-3.3c-2.3,0-4.2-1.9-4.2-4.3v-71.4
		c0-2.4,1.9-4.3,4.2-4.3h3.5c1.8,0,3.6,1.5,4,3.3l9.2,47.8l9.1-47.8c0.4-1.8,2.3-3.3,4.1-3.3h3.5c2.3,0,4.2,1.9,4.2,4.3V236
		c0,2.4-1.9,4.3-4.2,4.3h-3.3c-2.3,0-4.2-1.9-4.2-4.3v-25.5l-3.9,26.3c-0.5,1.9-2.3,3.4-4.1,3.4L263.5,240.3L263.5,240.3z"/>
	<path class="st1" d="M309.7,219.7c0,2.3-1.9,4.3-4.2,4.3h-3.3c-2.2,0-4.1-2-4.1-4.3v-55.1c0-2.4,1.9-4.3,4.1-4.3h3.3
		c2.3,0,4.2,1.9,4.2,4.3V219.7z M305.5,227.1c2.3,0,4.2,1.9,4.2,4.3v4.5c0,2.4-1.9,4.3-4.2,4.3h-3.3c-2.2,0-4.1-1.9-4.1-4.3v-4.5
		c0-2.4,1.9-4.3,4.1-4.3H305.5z"/>
</g>
<path class="st2" d="M216.2,277.9c9.1,8.7,21.4,14,34.9,14c13.8,0,26.3-5.6,35.5-14.7c5.4,2,11.2,3.1,17.3,3.1
	c28.1,0,50.8-23,50.8-51.4c0-16.4-7.5-30.9-19.3-40.3c0.8-3.6,1.2-7.3,1.2-11.1c0-28.4-22.8-51.4-50.8-51.4
	c-9.2,0-17.8,2.5-25.2,6.8c-9.3-10.4-22.8-17-37.7-17c-8.2,0-16,2-22.9,5.5v169.7C206.2,287.9,211.8,283.4,216.2,277.9z"/>
</svg>
