<?xml version="1.0" encoding="utf-8"?>
<!-- Generator: Adobe Illustrator 25.2.3, SVG Export Plug-In . SVG Version: 6.00 Build 0)  -->
<svg version="1.1" id="Layer_1" xmlns="http://www.w3.org/2000/svg" xmlns:xlink="http://www.w3.org/1999/xlink" x="0px" y="0px"
	 viewBox="0 0 512 512" style="enable-background:new 0 0 512 512;" xml:space="preserve">
<style type="text/css">
	.st0{fill:#AC92EC;}
</style>
<path class="st0" d="M433.2,265v-71.6h-35.4v-35.8h-35.5v-17.9h35.5V85.9h-53.1v35.8h-35.5v35.8H202.9v-35.8h-35.4V85.9h-53.1v53.7
	h35.4v17.9h-35.4v35.8H78.9V265H43.4v125.3h53.1v-71.6h17.7v71.6h35.4v35.8h88.6v-53.7h-70.9v-17.9h177.2v17.9h-70.9v53.7h88.6
	v-35.8h35.5v-71.6h17.7v71.6h53.1V265H433.2z M202.9,247h-53.1v-53.7h53.1V247z M362.3,247h-53.1v-53.7h53.1V247z"/>
</svg>
