<?xml version="1.0" encoding="utf-8"?>
<!-- Generator: Adobe Illustrator 25.2.3, SVG Export Plug-In . SVG Version: 6.00 Build 0)  -->
<svg version="1.1" id="Layer_1" xmlns="http://www.w3.org/2000/svg" xmlns:xlink="http://www.w3.org/1999/xlink" x="0px" y="0px"
	 viewBox="0 0 496.2 496.2" style="enable-background:new 0 0 496.2 496.2;" xml:space="preserve">
<style type="text/css">
	.st0{fill:#43C628;}
	.st1{fill:#7CE063;}
	.st2{fill:#FFFFFF;}
	.st3{fill:#636363;}
	.st4{fill:#238C10;}
</style>
<g>
	<g>
		<polygon class="st0" points="166,84.4 155.2,90.3 178.4,143.8 198.5,132.8 		"/>
		<circle class="st0" cx="161.1" cy="88.2" r="17.1"/>
	</g>
	<path class="st1" d="M164.5,73.8c-7.8-2.3-16,2.2-18.3,10s2.2,16,10,18.3C164.1,104.4,172.4,76.1,164.5,73.8z"/>
	<g>
		<polygon class="st0" points="330.5,84.4 298.1,132.8 318.1,143.8 341.4,90.3 		"/>
		<circle class="st0" cx="335.5" cy="88.2" r="17.1"/>
	</g>
	<path class="st1" d="M342,74.9c-7.1-3.9-16.1-1.3-20,5.9c-3.9,7.1-1.3,16.1,5.9,20C335,104.7,349.1,78.8,342,74.9z"/>
	<path class="st0" d="M248,107.1c-53.6,0-97,43.4-97,97v109.4c0,53.6,43.4,38.1,97,38.1s97,15.5,97-38.1V204.1
		C345,150.6,301.6,107.1,248,107.1z"/>
	<g>
		<path class="st1" d="M157,209.8c29.8-78.7,86.3-95.8,86.3-95.8C162.7,118.4,157,209.8,157,209.8z"/>
		<path class="st1" d="M315.6,146.3c19,26,25.4,143.4,25.4,143.4C349.2,145.7,315.6,146.3,315.6,146.3z"/>
	</g>
	<g>
		<path class="st0" d="M405.7,347.7c-3.3-1-26.3-1.3-37.4-5.7s-20.3-9.2-23.2-30.5c-1.6-12-56.1,40.9-56.1,40.9
			c54.2,1.9,98.2,24.8,108.6,28c12,3.7,24.2-1.6,27.3-11.8C427.9,358.4,417.7,351.3,405.7,347.7z"/>
		<path class="st0" d="M151.7,311.5c-2.9,21.3-12.1,26-23.2,30.5s-34.1,4.7-37.4,5.7c-12,3.7-22.3,10.7-19.2,20.9
			c3.1,10.2,15.3,15.5,27.3,11.8c10.4-3.2,54.3-26.1,108.6-28C207.8,352.4,153.3,299.5,151.7,311.5z"/>
		<path class="st0" d="M157.6,354c0,0,17.8-1.9,22.2,0.6c4.4,2.5,5.6,4.6,4.4,7.6c-2.6,7-12.4,8.2-18.1,14
			c-8.8,8.9-16,19.8-7.9,26.6c8.1,6.9,26.1,7.3,34.2-2.3c4.7-5.6,8.4-9.8,33.1-31.7c11.9-10.6,18.4-15.5,33.6-17.4
			C259.1,351.5,183.4,343.2,157.6,354z"/>
		<path class="st0" d="M330.5,376.2c-5.7-5.7-15.5-7-18.1-14c-1.1-3,0-5.1,4.4-7.6S339,354,339,354c-25.8-10.8-101.5-2.5-101.5-2.5
			c15.2,1.9,21.7,6.9,33.6,17.4c24.6,21.8,28.3,26.1,33.1,31.7c8.1,9.6,26.1,9.2,34.2,2.3C346.5,396,339.3,385.1,330.5,376.2z"/>
		<path class="st0" d="M218.9,318.1c9.4,12.1,7.7,20.3,8.7,36.2c2,32.9,3.1,38.7,4.8,45.7c3.3,14.3,5.1,25.5,15.7,26.4
			c10.6,0.9,11.8-12.6,13.8-25c1.4-9,9-77.1,9-77.1C260.3,298.5,218.9,318.1,218.9,318.1z"/>
	</g>
	<circle class="st2" cx="198.1" cy="225.1" r="22.1"/>
	<circle class="st3" cx="198.1" cy="225.1" r="9.6"/>
	<ellipse transform="matrix(0.1602 -0.9871 0.9871 0.1602 38.0335 387.921)" class="st2" cx="247" cy="171.6" rx="22.1" ry="22.1"/>
	<circle class="st3" cx="247" cy="171.6" r="9.6"/>
	<circle class="st2" cx="295.8" cy="225.1" r="22.1"/>
	<circle class="st3" cx="295.8" cy="225.1" r="9.6"/>
	<path class="st4" d="M316.5,276.9H186.2c-0.7,0-1.3,0.5-1.4,1.3c-0.1,0.7,0.4,1.4,1.1,1.6c0.3,0.1,26.4,6.4,64.8,6.4h0
		c22.5,0,44.8-2.1,66.2-6.4c0.7-0.1,1.2-0.8,1.1-1.5C317.9,277.4,317.3,276.9,316.5,276.9z"/>
</g>
</svg>
