<?xml version="1.0" encoding="utf-8"?>
<!-- Generator: Adobe Illustrator 25.2.3, SVG Export Plug-In . SVG Version: 6.00 Build 0)  -->
<svg version="1.1" id="Layer_1" xmlns="http://www.w3.org/2000/svg" xmlns:xlink="http://www.w3.org/1999/xlink" x="0px" y="0px"
	 viewBox="0 0 512 512" style="enable-background:new 0 0 512 512;" xml:space="preserve">
<style type="text/css">
	.st0{fill:#CCD1D9;}
	.st1{fill:#E6E9ED;}
</style>
<g>
	<path class="st0" d="M203.2,392.4c5.9,0,10.7,4.8,10.7,10.7l0,45.3c0,5.9-4.8,10.6-10.7,10.7c-5.9,0-10.7-4.8-10.7-10.7l0-45.3
		C192.6,397.2,197.4,392.4,203.2,392.4z"/>
	<path class="st1" d="M308.8,151c5.9,0,10.7,4.8,10.7,10.7l0,45.3c0,5.9-4.8,10.7-10.7,10.7c-5.9,0-10.7-4.8-10.7-10.7l0-45.3
		C298.1,155.8,302.9,151.1,308.8,151z"/>
	<path class="st0" d="M308.8,226.4c5.9,0,10.7,4.8,10.7,10.7v211.2c0,5.9-4.8,10.7-10.7,10.7c-5.9,0-10.7-4.8-10.7-10.7l0-211.2
		C298.1,231.1,302.9,226.4,308.8,226.4z"/>
	<path class="st1" d="M256,324.5c5.9,0,10.7,4.8,10.7,10.7l0,110.8c0,5.9-4.8,10.7-10.7,10.7c-5.9,0-10.7-4.8-10.7-10.7V335.2
		C245.4,329.3,250.1,324.5,256,324.5z"/>
	<path class="st0" d="M256,53c5.9,0,10.7,4.8,10.7,10.7l0,241.3c0,5.9-4.8,10.7-10.7,10.7c-5.9,0-10.7-4.8-10.7-10.7l0-241.3
		C245.4,57.8,250.1,53,256,53z"/>
	<path class="st1" d="M203.2,196.3c5.9,0,10.7,4.8,10.7,10.7l0,165.9c0,5.9-4.8,10.7-10.7,10.7c-5.9,0-10.7-4.8-10.7-10.7l0-165.9
		C192.6,201.1,197.3,196.3,203.2,196.3z"/>
</g>
</svg>
